<svg width="82" height="19" fill="none" xmlns="http://www.w3.org/2000/svg">
  <g clip-path="url(#prefix__clip0_684_22912)">
    <path
      d="M38.008 17.878L34.827 6.326c-.053-.162.795-.778 1.564-.778.556 0 1.166.322 1.378 1.421l1.988 9.032 2.439-7.8c.186-.643.636-.938 1.617-.938.954 0 1.405.295 1.59.939l2.36 7.746 1.961-8.979c.186-1.1.822-1.421 1.352-1.421.769 0 1.538.643 1.511.778l-3.154 11.552c-.16.643-.637.857-1.59.857-1.088 0-1.38-.213-1.618-.937l-2.465-7.8-2.545 7.8c-.239.696-.557.937-1.59.937-.955 0-1.432-.213-1.617-.857zM53.91 6.835c0-.965.503-1.287 1.192-1.287h.265c.69 0 1.167.295 1.167 1.287v10.587c0 .965-.478 1.26-1.167 1.26h-.265c-.689 0-1.193-.295-1.193-1.26V6.835zM55.287 0c.98 0 1.537.59 1.537 1.555 0 .964-.556 1.527-1.564 1.527-.98 0-1.564-.59-1.564-1.527 0-.966.584-1.555 1.591-1.555zM58.023 17.342c0-.563.212-.83.742-1.447l6.68-8.095h-6.23c-.795 0-1.139-.295-1.139-.965v-.188c0-.643.344-.964 1.14-.964h8.509c.822 0 1.087.455 1.087.991v.161c0 .509-.186.777-.716 1.394l-6.813 8.202h6.6c.796 0 1.14.321 1.14.991v.161c0 .67-.344.992-1.14.992H59.11c-.796 0-1.087-.483-1.087-1.019v-.214zM75.85 7.371c-2.094 0-3.711 1.528-4.029 3.671h7.634c-.132-2.224-1.484-3.671-3.604-3.671zm.026-2.01C79.561 5.36 82 7.986 82 11.847v.213c0 .563-.185.778-.795.778h-9.41c0 .161.026.322.053.482.37 2.118 2.04 3.511 4.293 3.511 2.228 0 3.34-.991 4.004-2.144.053-.053 1.378.188 1.378 1.313 0 .563-.477 1.287-1.405 1.877-.928.59-2.28 1.045-4.03 1.045-4.028 0-6.732-2.707-6.732-6.727 0-3.914 2.757-6.836 6.52-6.836z"
      fill="#3A3C45" />
    <path
      d="M2.762 2.266a.912.912 0 00-.805.47.932.932 0 000 .94L9.1 16.187a.91.91 0 00.805.47.91.91 0 00.805-.47l7.144-12.513a.933.933 0 000-.94.913.913 0 00-.805-.469H2.762zm7.144 16.24c-.997 0-1.89-.52-2.388-1.394L.374 4.6a2.787 2.787 0 010-2.788A2.724 2.724 0 012.762.418H17.05c.997 0 1.89.521 2.388 1.394a2.784 2.784 0 010 2.788l-7.144 12.512a2.724 2.724 0 01-2.388 1.394z"
      fill="#50B848" />
    <path
      d="M11.752 2.266a.912.912 0 00-.805.47.932.932 0 000 .94l7.144 12.512a.91.91 0 00.805.47.91.91 0 00.805-.47l7.144-12.513a.933.933 0 000-.94.913.913 0 00-.804-.469H11.75zm7.144 16.24c-.997 0-1.89-.52-2.388-1.394L9.364 4.6a2.788 2.788 0 010-2.788A2.724 2.724 0 0111.752.418H26.04c.997 0 1.889.521 2.387 1.394a2.783 2.783 0 010 2.788l-7.144 12.512a2.723 2.723 0 01-2.388 1.394z"
      fill="#50B848" />
  </g>
  <defs>
    <clipPath id="prefix__clip0_684_22912">
      <path fill="#fff" d="M0 0h82v18.923H0z" />
    </clipPath>
  </defs>
</svg>
