<svg width="56" height="56" viewBox="0 0 56 56" fill="none" xmlns="http://www.w3.org/2000/svg">
<path d="M32.6664 2.33301H23.3331C22.0497 2.33301 20.9997 3.38301 20.9997 4.66634C20.9997 5.94967 22.0497 6.99967 23.3331 6.99967H32.6664C33.9497 6.99967 34.9997 5.94967 34.9997 4.66634C34.9997 3.38301 33.9497 2.33301 32.6664 2.33301ZM27.9997 32.6663C29.2831 32.6663 30.3331 31.6163 30.3331 30.333V20.9997C30.3331 19.7163 29.2831 18.6663 27.9997 18.6663C26.7164 18.6663 25.6664 19.7163 25.6664 20.9997V30.333C25.6664 31.6163 26.7164 32.6663 27.9997 32.6663ZM44.4031 17.243L46.1531 15.493C47.0398 14.6063 47.0631 13.1363 46.1531 12.2263L46.1298 12.203C45.2197 11.293 43.7731 11.3163 42.8631 12.203L41.1131 13.953C37.4964 11.0597 32.9464 9.33301 27.9997 9.33301C16.7997 9.33301 7.27975 18.573 6.99975 29.773C6.69641 41.6263 16.1931 51.333 27.9997 51.333C39.6197 51.333 48.9998 41.9297 48.9998 30.333C48.9998 25.3863 47.2731 20.8363 44.4031 17.243ZM27.9997 46.6663C18.9697 46.6663 11.6664 39.363 11.6664 30.333C11.6664 21.303 18.9697 13.9997 27.9997 13.9997C37.0297 13.9997 44.3331 21.303 44.3331 30.333C44.3331 39.363 37.0297 46.6663 27.9997 46.6663Z" fill="#DC593F"/>
</svg>
