<svg width="72" height="23" fill="none" xmlns="http://www.w3.org/2000/svg">
  <g clip-path="url(#prefix__clip0_684_22933)">
    <path
      d="M10.168 10.206a4.97 4.97 0 001.457-3.53 4.97 4.97 0 00-1.457-3.53A4.934 4.934 0 006.65 1.685c-1.328 0-2.578.52-3.518 1.463a4.968 4.968 0 00-1.457 3.53c0 1.332.518 2.586 1.457 3.529l.104.104L6.65 6.884l3.414 3.426.104-.104zM4.422 11.5l2.228 2.236L8.88 11.5 6.65 9.264 4.422 11.5zm-1.186 1.19l-.104.105a4.97 4.97 0 00-1.457 3.53 4.97 4.97 0 001.457 3.529 4.935 4.935 0 003.518 1.462c1.33 0 2.579-.519 3.518-1.462a4.97 4.97 0 001.457-3.53 4.971 4.971 0 00-1.457-3.53l-.104-.104-3.414 3.426-3.414-3.426zM6.65 23a6.593 6.593 0 01-4.701-1.955A6.646 6.646 0 010 16.325c0-1.784.692-3.46 1.948-4.721l.103-.104-.103-.103A6.647 6.647 0 010 6.677c0-1.784.692-3.46 1.948-4.722A6.596 6.596 0 016.65 0c1.776 0 3.446.694 4.702 1.955A6.646 6.646 0 0113.3 6.676c0 1.783-.692 3.46-1.948 4.721l-.103.103.103.103a6.646 6.646 0 011.948 4.721c0 1.784-.692 3.46-1.948 4.721A6.593 6.593 0 016.65 23z"
      fill="#FFCB05" />
    <path
      d="M26.843 7.388c-1.823 0-3.23 1.321-3.507 3.177h6.646c-.116-1.925-1.293-3.177-3.139-3.177zm.023-1.74c3.207 0 5.33 2.273 5.33 5.613v.185c0 .488-.16.673-.691.673h-8.193c0 .14.024.278.046.417.324 1.832 1.777 3.039 3.739 3.039 1.938 0 2.907-.858 3.484-1.856.047-.046 1.2.163 1.2 1.136 0 .488-.415 1.114-1.223 1.624-.807.51-1.984.904-3.507.904-3.508 0-5.861-2.342-5.861-5.82 0-3.387 2.4-5.915 5.676-5.915zM33.783 16.193V1.614c0-.067.393-.246.831-.246.716 0 1.454.358 1.454 1.902v12.923c0 .805-.415 1.051-1.015 1.051h-.231c-.6 0-1.039-.246-1.039-1.051zM43.308 7.388c-1.823 0-3.23 1.321-3.508 3.177h6.646c-.115-1.925-1.292-3.177-3.138-3.177zm.023-1.74c3.208 0 5.331 2.273 5.331 5.613v.185c0 .488-.162.673-.692.673h-8.193c0 .14.023.278.046.417.323 1.832 1.777 3.039 3.739 3.039 1.938 0 2.908-.858 3.485-1.856.046-.046 1.2.163 1.2 1.136 0 .488-.415 1.114-1.223 1.624s-1.985.904-3.508.904c-3.508 0-5.862-2.342-5.862-5.82 0-3.387 2.4-5.915 5.677-5.915zM48.724 6.483c-.046-.14.461-.672 1.2-.672.645 0 1.061.278 1.453 1.368l2.792 7.862 2.885-7.862c.392-1.09.83-1.368 1.408-1.368.715 0 1.223.556 1.177.672l-4.038 10.02c-.209.51-.67.718-1.408.718-.785 0-1.177-.162-1.384-.672L48.724 6.483zM69.277 5.812c0-1.524-1.13-2.572-3.138-2.572-2.077 0-3.139 1-3.139 2.572 0 1.476 1.177 2.476 3.161 2.476 1.986 0 3.116-.928 3.116-2.476zm.392 6.977c0-1.643-1.315-2.739-3.53-2.739-2.24 0-3.53 1.072-3.53 2.739 0 1.571 1.314 2.69 3.552 2.69 2.309 0 3.508-1.023 3.508-2.69zm-9.392.19c0-1.785 1.04-3.167 3.023-3.833-1.753-.596-2.584-1.834-2.584-3.477 0-2.548 2.146-4.31 5.445-4.31 3.347 0 5.377 1.667 5.377 4.263 0 1.643-.853 2.88-2.561 3.5 2.03.643 3.023 2.024 3.023 3.857 0 2.572-2.33 4.382-5.861 4.382-3.646 0-5.862-1.715-5.862-4.382z"
      fill="#3A3C45" />
  </g>
  <defs>
    <clipPath id="prefix__clip0_684_22933">
      <path fill="#fff" d="M0 0h72v23H0z" />
    </clipPath>
  </defs>
</svg>
