<svg width="56" height="56" viewBox="0 0 56 56" fill="none" xmlns="http://www.w3.org/2000/svg">
<path d="M40.3666 14.7C39.4566 13.79 37.9866 13.79 37.0766 14.7L23.9166 27.86L27.2066 31.15L40.3666 17.9667C41.2533 17.08 41.2533 15.5867 40.3666 14.7ZM50.26 14.6767L27.2066 37.73L19.0866 29.6333C18.1766 28.7233 16.7066 28.7233 15.7966 29.6333C14.8866 30.5433 14.8866 32.0133 15.7966 32.9233L25.55 42.6767C26.46 43.5867 27.93 43.5867 28.84 42.6767L53.55 17.99C54.46 17.08 54.46 15.61 53.55 14.7H53.5266C52.64 13.7667 51.17 13.7667 50.26 14.6767ZM2.61329 32.9467L12.3666 42.7C13.2766 43.61 14.7466 43.61 15.6566 42.7L17.29 41.0667L5.90329 29.6333C4.99329 28.7233 3.52329 28.7233 2.61329 29.6333C1.70329 30.5433 1.70329 32.0367 2.61329 32.9467Z" fill="#DC593F"/>
</svg>
